<mxfile host="65bd71144e">
    <diagram id="74PbdGz2UCag46kpLz8n" name="design">
        <mxGraphModel dx="1734" dy="933" grid="1" gridSize="10" guides="1" tooltips="1" connect="1" arrows="1" fold="1" page="1" pageScale="1" pageWidth="850" pageHeight="1100" math="0" shadow="0">
            <root>
                <mxCell id="0"/>
                <mxCell id="1" parent="0"/>
                <mxCell id="2" value="navbar" style="rounded=0;whiteSpace=wrap;html=1;" parent="1" vertex="1">
                    <mxGeometry x="30" y="90" width="760" height="40" as="geometry"/>
                </mxCell>
                <mxCell id="3" value="search" style="rounded=0;whiteSpace=wrap;html=1;fillColor=#fff2cc;strokeColor=#d6b656;" parent="1" vertex="1">
                    <mxGeometry x="360" y="140" width="120" height="40" as="geometry"/>
                </mxCell>
                <mxCell id="4" value="notifications" style="rounded=0;whiteSpace=wrap;html=1;fillColor=#dae8fc;strokeColor=#6c8ebf;" parent="1" vertex="1">
                    <mxGeometry x="540" y="140" width="70" height="40" as="geometry"/>
                </mxCell>
                <mxCell id="5" value="help" style="rounded=0;whiteSpace=wrap;html=1;fillColor=#dae8fc;strokeColor=#6c8ebf;" parent="1" vertex="1">
                    <mxGeometry x="620" y="140" width="50" height="40" as="geometry"/>
                </mxCell>
                <mxCell id="6" value="setings" style="rounded=0;whiteSpace=wrap;html=1;fillColor=#dae8fc;strokeColor=#6c8ebf;" parent="1" vertex="1">
                    <mxGeometry x="680" y="140" width="50" height="40" as="geometry"/>
                </mxCell>
                <mxCell id="7" value="user" style="rounded=0;whiteSpace=wrap;html=1;fillColor=#dae8fc;strokeColor=#6c8ebf;" parent="1" vertex="1">
                    <mxGeometry x="740" y="140" width="50" height="40" as="geometry"/>
                </mxCell>
                <mxCell id="8" value="logout" style="rounded=0;whiteSpace=wrap;html=1;fillColor=#e1d5e7;strokeColor=#9673a6;" parent="1" vertex="1">
                    <mxGeometry x="740" y="190" width="50" height="40" as="geometry"/>
                </mxCell>
                <mxCell id="9" value="logo" style="rounded=0;whiteSpace=wrap;html=1;fillColor=#dae8fc;strokeColor=#6c8ebf;" parent="1" vertex="1">
                    <mxGeometry x="30" y="140" width="60" height="40" as="geometry"/>
                </mxCell>
                <mxCell id="10" value="projects" style="rounded=0;whiteSpace=wrap;html=1;fillColor=#dae8fc;strokeColor=#6c8ebf;" parent="1" vertex="1">
                    <mxGeometry x="100" y="140" width="60" height="40" as="geometry"/>
                </mxCell>
                <mxCell id="11" value="users" style="rounded=0;whiteSpace=wrap;html=1;fillColor=#dae8fc;strokeColor=#6c8ebf;" parent="1" vertex="1">
                    <mxGeometry x="170" y="140" width="60" height="40" as="geometry"/>
                </mxCell>
                <mxCell id="12" value="sidebar" style="rounded=0;whiteSpace=wrap;html=1;" parent="1" vertex="1">
                    <mxGeometry x="30" y="260" width="200" height="330" as="geometry"/>
                </mxCell>
                <mxCell id="13" value="content" style="rounded=0;whiteSpace=wrap;html=1;" parent="1" vertex="1">
                    <mxGeometry x="240" y="260" width="550" height="330" as="geometry"/>
                </mxCell>
                <mxCell id="14" value="create issue" style="rounded=0;whiteSpace=wrap;html=1;fillColor=#dae8fc;strokeColor=#6c8ebf;" parent="1" vertex="1">
                    <mxGeometry x="240" y="140" width="60" height="40" as="geometry"/>
                </mxCell>
                <mxCell id="15" value="board" style="rounded=0;whiteSpace=wrap;html=1;fillColor=#dae8fc;strokeColor=#6c8ebf;" parent="1" vertex="1">
                    <mxGeometry x="50" y="370" width="60" height="40" as="geometry"/>
                </mxCell>
                <mxCell id="16" value="backlog" style="rounded=0;whiteSpace=wrap;html=1;fillColor=#dae8fc;strokeColor=#6c8ebf;" parent="1" vertex="1">
                    <mxGeometry x="50" y="320" width="60" height="40" as="geometry"/>
                </mxCell>
                <mxCell id="18" value="image" style="rounded=0;whiteSpace=wrap;html=1;" parent="1" vertex="1">
                    <mxGeometry x="40" y="270" width="50" height="30" as="geometry"/>
                </mxCell>
                <mxCell id="19" value="project name" style="rounded=0;whiteSpace=wrap;html=1;" parent="1" vertex="1">
                    <mxGeometry x="100" y="270" width="50" height="30" as="geometry"/>
                </mxCell>
                <mxCell id="46" value="add task form" style="rounded=0;whiteSpace=wrap;html=1;" parent="1" vertex="1">
                    <mxGeometry x="30" y="710" width="550" height="330" as="geometry"/>
                </mxCell>
                <mxCell id="47" value="project" style="rounded=0;whiteSpace=wrap;html=1;fillColor=#ffe6cc;strokeColor=#d79b00;" parent="1" vertex="1">
                    <mxGeometry x="50" y="740" width="120" height="40" as="geometry"/>
                </mxCell>
                <mxCell id="48" value="issue type" style="rounded=0;whiteSpace=wrap;html=1;fillColor=#ffe6cc;strokeColor=#d79b00;" parent="1" vertex="1">
                    <mxGeometry x="50" y="790" width="120" height="40" as="geometry"/>
                </mxCell>
                <mxCell id="49" value="summary" style="rounded=0;whiteSpace=wrap;html=1;fillColor=#fff2cc;strokeColor=#d6b656;" parent="1" vertex="1">
                    <mxGeometry x="50" y="840" width="120" height="40" as="geometry"/>
                </mxCell>
                <mxCell id="50" value="description" style="rounded=0;whiteSpace=wrap;html=1;fillColor=#fff2cc;strokeColor=#d6b656;" parent="1" vertex="1">
                    <mxGeometry x="50" y="890" width="120" height="40" as="geometry"/>
                </mxCell>
                <mxCell id="51" value="assignee" style="rounded=0;whiteSpace=wrap;html=1;fillColor=#ffe6cc;strokeColor=#d79b00;" parent="1" vertex="1">
                    <mxGeometry x="50" y="940" width="120" height="40" as="geometry"/>
                </mxCell>
                <mxCell id="52" value="priority" style="rounded=0;whiteSpace=wrap;html=1;fillColor=#fff2cc;strokeColor=#d6b656;" parent="1" vertex="1">
                    <mxGeometry x="190" y="740" width="120" height="40" as="geometry"/>
                </mxCell>
                <mxCell id="54" value="sprint" style="rounded=0;whiteSpace=wrap;html=1;fillColor=#ffe6cc;strokeColor=#d79b00;" parent="1" vertex="1">
                    <mxGeometry x="190" y="790" width="120" height="40" as="geometry"/>
                </mxCell>
                <mxCell id="55" value="story points" style="rounded=0;whiteSpace=wrap;html=1;fillColor=#fff2cc;strokeColor=#d6b656;" parent="1" vertex="1">
                    <mxGeometry x="330" y="740" width="120" height="40" as="geometry"/>
                </mxCell>
                <mxCell id="56" value="cancel" style="rounded=0;whiteSpace=wrap;html=1;fillColor=#dae8fc;strokeColor=#6c8ebf;" parent="1" vertex="1">
                    <mxGeometry x="450" y="980" width="50" height="40" as="geometry"/>
                </mxCell>
                <mxCell id="57" value="save" style="rounded=0;whiteSpace=wrap;html=1;fillColor=#e1d5e7;strokeColor=#9673a6;" parent="1" vertex="1">
                    <mxGeometry x="510" y="980" width="50" height="40" as="geometry"/>
                </mxCell>
                <mxCell id="58" value="form header" style="rounded=0;whiteSpace=wrap;html=1;" parent="1" vertex="1">
                    <mxGeometry x="190" y="940" width="100" height="40" as="geometry"/>
                </mxCell>
                <mxCell id="59" value="search" style="rounded=0;whiteSpace=wrap;html=1;fillColor=#e1d5e7;strokeColor=#9673a6;" parent="1" vertex="1">
                    <mxGeometry x="480" y="140" width="50" height="40" as="geometry"/>
                </mxCell>
                <mxCell id="61" value="add task form" style="rounded=0;whiteSpace=wrap;html=1;fillColor=#ffff88;strokeColor=#36393d;fontStyle=1" parent="1" vertex="1">
                    <mxGeometry x="30" y="670" width="90" height="30" as="geometry"/>
                </mxCell>
                <mxCell id="62" value="layout" style="rounded=0;whiteSpace=wrap;html=1;fillColor=#ffff88;strokeColor=#36393d;fontStyle=1" parent="1" vertex="1">
                    <mxGeometry x="30" y="50" width="90" height="30" as="geometry"/>
                </mxCell>
                <mxCell id="63" value="navigation button" style="rounded=0;whiteSpace=wrap;html=1;fillColor=#dae8fc;strokeColor=#6c8ebf;" parent="1" vertex="1">
                    <mxGeometry x="680" y="760" width="80" height="40" as="geometry"/>
                </mxCell>
                <mxCell id="64" value="submit button" style="rounded=0;whiteSpace=wrap;html=1;fillColor=#e1d5e7;strokeColor=#9673a6;" parent="1" vertex="1">
                    <mxGeometry x="680" y="800" width="80" height="40" as="geometry"/>
                </mxCell>
                <mxCell id="65" value="input" style="rounded=0;whiteSpace=wrap;html=1;fillColor=#fff2cc;strokeColor=#d6b656;" parent="1" vertex="1">
                    <mxGeometry x="680" y="840" width="80" height="40" as="geometry"/>
                </mxCell>
                <mxCell id="66" value="complex input" style="rounded=0;whiteSpace=wrap;html=1;fillColor=#ffe6cc;strokeColor=#d79b00;" parent="1" vertex="1">
                    <mxGeometry x="680" y="880" width="80" height="40" as="geometry"/>
                </mxCell>
                <mxCell id="67" value="legend" style="rounded=0;whiteSpace=wrap;html=1;" vertex="1" parent="1">
                    <mxGeometry x="680" y="720" width="80" height="40" as="geometry"/>
                </mxCell>
            </root>
        </mxGraphModel>
    </diagram>
</mxfile>